Normalized EMG Linear Envelopes
nRows=150
nColumns=4

endheader
time	 med_gas_r	  soleus_r	 tib_ant_r	
2.93448	  0.007556	  0.024614	  0.001571	
3.00605	  0.008208	  0.025808	  0.001622	
3.07762	  0.008260	  0.027018	  0.001670	
3.14919	  0.007551	  0.027307	  0.001691	
3.22077	  0.006810	  0.025917	  0.001689	
3.29234	  0.006517	  0.023512	  0.001682	
3.36391	  0.006820	  0.022539	  0.001656	
3.43548	  0.007377	  0.022867	  0.001608	
3.50706	  0.007552	  0.023659	  0.001579	
3.57863	  0.007250	  0.023759	  0.001548	
3.6502	  0.007236	  0.023533	  0.001516	
3.72177	  0.007605	  0.024146	  0.001508	
3.79335	  0.007974	  0.025326	  0.001526	
3.86492	  0.007861	  0.026545	  0.001580	
3.93649	  0.007571	  0.027642	  0.001661	
4.00806	  0.007537	  0.028534	  0.001705	
4.07964	  0.007632	  0.028524	  0.001672	
4.15121	  0.007794	  0.027138	  0.001629	
4.22278	  0.008185	  0.024991	  0.001621	
4.29435	  0.008494	  0.023501	  0.001652	
4.36593	  0.008541	  0.023032	  0.001716	
4.4375	  0.008900	  0.023532	  0.001779	
4.50907	  0.009501	  0.024827	  0.001809	
4.58065	  0.009558	  0.025397	  0.001788	
4.65222	  0.009074	  0.024751	  0.001755	
4.72379	  0.008319	  0.023562	  0.001739	
4.79536	  0.007732	  0.022170	  0.001722	
4.86694	  0.007689	  0.020929	  0.001725	
4.93851	  0.007748	  0.020204	  0.001763	
5.01008	  0.007591	  0.019660	  0.001812	
5.08165	  0.007391	  0.019726	  0.001836	
5.15323	  0.006412	  0.020275	  0.001772	
5.2248	  0.003651	  0.020888	  0.001582	
5.29637	 -0.001313	  0.020437	  0.001281	
5.36794	 -0.006381	  0.018635	  0.000992	
5.43952	 -0.003645	  0.017652	  0.001175	
5.51109	  0.023131	  0.023259	  0.002706	
5.58266	  0.094223	  0.043067	  0.006643	
5.65423	  0.215365	  0.082434	  0.013315	
5.72581	  0.337957	  0.132274	  0.021109	
5.79738	  0.404721	  0.165380	  0.026013	
5.86895	  0.457843	  0.191216	  0.024845	
5.94052	  0.508407	  0.223505	  0.022239	
6.0121	  0.546996	  0.260765	  0.022038	
6.08367	  0.570124	  0.299257	  0.023643	
6.15524	  0.599645	  0.329914	  0.026028	
6.22681	  0.644915	  0.347087	  0.028732	
6.29839	  0.692695	  0.369411	  0.031544	
6.36996	  0.714688	  0.388186	  0.033596	
6.44153	  0.717399	  0.382177	  0.036724	
6.5131	  0.719929	  0.379507	  0.041116	
6.58468	  0.725563	  0.389986	  0.042119	
6.65625	  0.697609	  0.395084	  0.039512	
6.72782	  0.631476	  0.387077	  0.036582	
6.7994	  0.580316	  0.370473	  0.034084	
6.87097	  0.582025	  0.357047	  0.032443	
6.94254	  0.611184	  0.353471	  0.032498	
7.01411	  0.636385	  0.354166	  0.034128	
7.08569	  0.646851	  0.357632	  0.036618	
7.15726	  0.654641	  0.364815	  0.040596	
7.22883	  0.670192	  0.376963	  0.045260	
7.3004	  0.679383	  0.404179	  0.048707	
7.37198	  0.674596	  0.438694	  0.051857	
7.44355	  0.666329	  0.456599	  0.057532	
7.51512	  0.668415	  0.447180	  0.061028	
7.58669	  0.692817	  0.437014	  0.058391	
7.65827	  0.702042	  0.426251	  0.056022	
7.72984	  0.663103	  0.411978	  0.054119	
7.80141	  0.616374	  0.403843	  0.049518	
7.87298	  0.592015	  0.424148	  0.043010	
7.94456	  0.590746	  0.459428	  0.038671	
8.01613	  0.586580	  0.479162	  0.036825	
8.0877	  0.589509	  0.497909	  0.036489	
8.15927	  0.610801	  0.510342	  0.036651	
8.23085	  0.635619	  0.506660	  0.036556	
8.30242	  0.652952	  0.491492	  0.036199	
8.37399	  0.667817	  0.481346	  0.037186	
8.44556	  0.670475	  0.492130	  0.038805	
8.51714	  0.664195	  0.517929	  0.040035	
8.58871	  0.667481	  0.526105	  0.043462	
8.66028	  0.679574	  0.514554	  0.048146	
8.73185	  0.685879	  0.505325	  0.049061	
8.80343	  0.682192	  0.513072	  0.047840	
8.875	  0.686066	  0.535371	  0.047593	
8.94657	  0.710357	  0.550079	  0.047711	
9.01815	  0.724267	  0.556634	  0.046964	
9.08972	  0.726338	  0.570684	  0.046758	
9.16129	  0.713494	  0.598961	  0.047452	
9.23286	  0.701690	  0.633613	  0.047382	
9.30444	  0.698720	  0.658462	  0.047381	
9.37601	  0.712106	  0.669120	  0.050091	
9.44758	  0.734215	  0.684253	  0.053968	
9.51915	  0.738445	  0.691003	  0.057236	
9.59073	  0.726873	  0.680468	  0.058798	
9.6623	  0.730728	  0.680656	  0.058817	
9.73387	  0.764021	  0.687313	  0.057085	
9.80544	  0.808245	  0.678230	  0.054045	
9.87702	  0.819481	  0.651791	  0.051888	
9.94859	  0.761745	  0.635987	  0.050332	
10.0202	  0.718076	  0.641764	  0.049383	
10.0917	  0.712485	  0.641423	  0.048014	
10.1633	  0.726801	  0.630520	  0.046140	
10.2349	  0.762803	  0.629504	  0.045200	
10.3065	  0.795028	  0.634734	  0.046505	
10.378	  0.810263	  0.632692	  0.049595	
10.4496	  0.813151	  0.628559	  0.051916	
10.5212	  0.802310	  0.617010	  0.052278	
10.5927	  0.780117	  0.621415	  0.050974	
10.6643	  0.761609	  0.657522	  0.049585	
10.7359	  0.749059	  0.684872	  0.049850	
10.8075	  0.738931	  0.693578	  0.051323	
10.879	  0.747799	  0.687820	  0.052843	
10.9506	  0.751099	  0.656628	  0.053661	
11.0222	  0.729383	  0.597616	  0.052787	
11.0937	  0.679673	  0.524250	  0.049338	
11.1653	  0.607353	  0.433307	  0.043710	
11.2369	  0.522405	  0.344850	  0.037330	
11.3085	  0.458254	  0.292644	  0.031913	
11.38	  0.421158	  0.277809	  0.028398	
11.4516	  0.396777	  0.280913	  0.025583	
11.5232	  0.358753	  0.281195	  0.022772	
11.5948	  0.315681	  0.263245	  0.020901	
11.6663	  0.276748	  0.231207	  0.020396	
11.7379	  0.247777	  0.193506	  0.020683	
11.8095	  0.220184	  0.158489	  0.020691	
11.881	  0.182227	  0.130492	  0.019175	
11.9526	  0.135613	  0.105481	  0.018505	
12.0242	  0.088802	  0.078088	  0.019136	
12.0958	  0.053594	  0.051725	  0.020454	
12.1673	  0.030389	  0.035991	  0.028999	
12.2389	  0.018771	  0.032886	  0.048348	
12.3105	  0.015221	  0.037702	  0.072049	
12.3821	  0.015608	  0.045195	  0.088135	
12.4536	  0.017381	  0.052035	  0.093849	
12.5252	  0.019319	  0.057628	  0.095971	
12.5968	  0.020831	  0.060490	  0.100574	
12.6683	  0.021036	  0.056959	  0.105729	
12.7399	  0.019512	  0.049900	  0.104892	
12.8115	  0.016780	  0.042250	  0.089095	
12.8831	  0.013913	  0.034332	  0.066081	
12.9546	  0.011759	  0.026873	  0.045462	
13.0262	  0.010685	  0.021962	  0.032578	
13.0978	  0.010348	  0.020860	  0.025038	
13.1694	  0.010818	  0.023584	  0.024879	
13.2409	  0.012091	  0.029397	  0.032136	
13.3125	  0.013020	  0.036031	  0.040065	
13.3841	  0.012944	  0.040504	  0.042522	
13.4556	  0.011562	  0.039028	  0.038015	
13.5272	  0.009929	  0.033743	  0.030310	
13.5988	  0.008631	  0.029205	  0.021289	
